<svg xmlns="http://www.w3.org/2000/svg" viewBox="0 0 45.26 339.93"><defs><style>.cls-1{fill:#7d8c8b;}</style></defs><g id="Layer_2" data-name="Layer 2"><g id="Layer_1-2" data-name="Layer 1"><path class="cls-1" d="M31.3,294.48a11.12,11.12,0,0,1,3.61-.56c6.36,0,10.35,4.36,10.35,9.79,0,4.05-2.55,8.35-5.73,12.16a14.77,14.77,0,0,1,5.73,12c0,7.29-4.36,12-10.1,12-5.42,0-9.85-3.55-12.09-9-3.18,2.12-6.61,3.68-10,3.68-6.23,0-10.85-5.42-10.85-12.9,0-6.05,3.93-10.42,9.35-10.42,5,0,9,3.68,10.17,8.55l.93-.94c2.68-2.62,5.49-5.24,7.92-7.79-4.61-2.31-10-7.17-10-12.35,0-2.62,1.38-5,4.56-5,2.86,0,4.11,1.87,4.11,3.81A4.55,4.55,0,0,1,27.62,301a3.33,3.33,0,0,0-2.81-1.75,2,2,0,0,0-2.18,2.06c0,2.62,5.24,6.79,8.79,8.79,3.43-3.68,5.86-7.11,5.86-9.91a4.76,4.76,0,0,0-4.86-4.93,5.48,5.48,0,0,0-1.06.13ZM9.1,326.65c4.55,0,8.54-3,11.47-5.8-1.55-1.43-4.86-3.3-10-3.3-4.43,0-6.86,1.43-6.86,4.49C3.68,325.65,6.48,326.65,9.1,326.65ZM38.59,317a115.06,115.06,0,0,1-9.91,9.54c-.94.87-1.93,1.74-3,2.55A10,10,0,0,0,31.8,331c5.73,0,9.1-3.37,9.1-8.36A7.59,7.59,0,0,0,38.59,317Z"/><path class="cls-1" d="M34.29,275.65h-18v3.43H15.4c0-4.18-6.61-11.66-11.53-11.66v-1h11V257h1.49v9.41H33.6c4.31,0,7.61-.44,7.61-3.74,0-2.81-2-4.43-7-4.43h-1v-1.12h1.06c6.73,0,10.91,2.74,10.91,8.92S41.21,275.65,34.29,275.65Z"/><path class="cls-1" d="M43.33,256l-.93-3.18H3.68l.25,3.24H3L0,244.16l.25-.31H22.32v-.37c-3.37-1.19-8.35-5-8.35-11.54,0-8,7.42-8,11.22-8H42.4l.93-3.18h.94v15.59h-.94l-.93-3.18H23.57c-3.68,0-5.05.75-5.05,3.43,0,3.86,3.68,6.11,7.67,7H42.4l.93-3.18h.94V256Z"/><path class="cls-1" d="M33.48,191.17c6.17,0,11.66,4.36,11.66,12.78,0,9.79-6.3,15.21-15.28,15.21C19.58,219.16,14,212.61,14,203c0-6.79,3.74-11.59,10.91-11.59a21.65,21.65,0,0,1,2.68.18v17.83h1c8.22,0,12-3.24,12-9.22,0-5.3-3.75-8-8.11-8h-.19v-.94A4.49,4.49,0,0,1,33.48,191.17Zm-7.36,18.2v-9.48a24.37,24.37,0,0,0-3.49-.25c-4.49,0-7.23.69-7.23,3.12C15.4,207.06,20.51,208.93,26.12,209.37Z"/><path class="cls-1" d="M31.17,177.32c-12.53,0-17.2-6.54-17.2-13.4a10.11,10.11,0,0,1,2.55-7.23H3.8l.25,3.24H3.12L0,147.77l.25-.31H41.46l-.25-3.24h.94l3,11.9-.25.32h-8v.37c4,1.56,8.23,4.49,8.23,10.23C45.14,174,40.21,177.32,31.17,177.32ZM33,156.69H18.52a6.43,6.43,0,0,0-1.94,4.61c0,4.36,4.56,6.3,13.6,6.3,8,0,10.28-1.62,10.28-4.49C40.46,160.05,37.91,158.06,33,156.69Z"/><path class="cls-1" d="M33.48,114.1c6.17,0,11.66,4.36,11.66,12.78,0,9.79-6.3,15.21-15.28,15.21C19.58,142.09,14,135.55,14,126c0-6.8,3.74-11.6,10.91-11.6a20,20,0,0,1,2.68.19v17.83h1c8.22,0,12-3.24,12-9.23,0-5.3-3.75-8-8.11-8h-.19v-.93A4,4,0,0,1,33.48,114.1Zm-7.36,18.21v-9.48a24.37,24.37,0,0,0-3.49-.25c-4.49,0-7.23.69-7.23,3.12C15.4,130,20.51,131.87,26.12,132.31Z"/><path class="cls-1" d="M34.29,110.23h-18v3.43H15.4C15.4,109.49,8.79,102,3.87,102v-1h11V91.59h1.49V101H33.6c4.31,0,7.61-.44,7.61-3.74,0-2.81-2-4.43-7-4.43h-1V91.72h1.06c6.73,0,10.91,2.74,10.91,8.91S41.21,110.23,34.29,110.23Z"/><path class="cls-1" d="M35.48,59.23h1.18c2.68,0,8.48.13,8.48,7,0,4.24-2.49,6.48-5.55,6.85v.25a10.63,10.63,0,0,1,5.55,9.29c0,4.49-2.37,7.73-6.67,7.73-5.49,0-7.61-5-9.17-11.28-.74-3.06-2-5.49-3.49-5.49H24.38c-6.55,0-8.67,1.62-8.67,5.24,0,2.81,1.62,4.61,4,4.61a3.5,3.5,0,0,0,3.62-2.93c1.68,0,3.93,1.81,3.93,4.8,0,2.56-2,4.06-4.68,4.06-4.8,0-8.6-6-8.6-12.85,0-7.6,3.43-12.15,11-12.15H37.41c2.55,0,4.3-.19,4.3-1.69,0-1.74-2.43-2.37-5.17-2.37H35.48Zm2.61,14.34H28.31a9.73,9.73,0,0,1,1.43,2.62C30.8,78.44,32,80.8,36.1,80.8c2.62,0,4.67-.68,4.67-3.3C40.77,76,39.9,74.63,38.09,73.57Z"/><path class="cls-1" d="M6.42,55.93a5,5,0,0,1,0-10,5,5,0,1,1,0,10Zm36.91,2.12-.93-3.18H17.52l.25,3.24h-.94l-3-12,.25-.38H42.4l.93-3.18h.94V58.05Z"/><path class="cls-1" d="M43.33,41.52l-.93-3.18H3.68l.25,3.25H3L0,29.49l.19-.37H42.4l.93-3.18h.94V41.52Z"/><path class="cls-1" d="M39.47,6.36c-5.87,0-7.3,17-16.21,17C18.21,23.32,14,19,14,11,14,4.37,16.9.87,20.51.87a3.93,3.93,0,0,1,4.18,4.3c0,1.88-1,3.87-2.49,4.37A3.64,3.64,0,0,0,19,7.05C16.9,7.05,15.4,9,15.4,12c0,2.81,1.25,5.12,3.62,5.12C26.19,17.15,25.69,0,35.91,0c4.74,0,9.23,4.37,9.23,13.28,0,7.67-3.62,10.91-6.8,10.91-2.74,0-4.86-1.74-4.86-4.36a3.46,3.46,0,0,1,3-3.68,3.69,3.69,0,0,0,3.31,2.24c1.87,0,3.93-1.31,3.93-6.17C43.71,8.11,41.59,6.36,39.47,6.36Z"/></g></g></svg>